<svg width="44" height="44" viewBox="0 0 44 44" fill="none" xmlns="http://www.w3.org/2000/svg">
<circle cx="22" cy="22" r="22" fill="white"/>
<path d="M38.6063 23.3424C38.6063 23.3424 37.4699 36.9999 22.4874 36.9999C7.50492 36.9999 8.13294 24.3767 6.36853 23.8993C4.60413 23.422 4.4845 22.5999 6.36853 22.7855C8.25256 22.9711 33.1636 23.4485 36.7223 22.7855C40.281 22.1225 38.6063 23.3424 38.6063 23.3424Z" fill="#051E26"/>
<path d="M27.6599 13.9659C34.5056 14.2015 37.5488 19.4922 38.006 22.0051C38.006 22.0051 37.3202 22.6235 34.9946 22.6235C32.669 22.6235 18.3872 23.1241 17.0455 22.3584C15.7037 21.5928 20.8142 13.7303 27.6599 13.9659Z" fill="#F5C322"/>
<path d="M10.9586 14.6771C14.9446 12.7633 19.9122 15.796 19.9122 16.9737C18.2464 17.7687 15.6882 21.6553 16.7591 22.6858C16.7591 22.6858 7.24029 22.7153 6.85359 22.3031C6.46689 21.8909 6.40088 16.8655 10.9586 14.6771Z" fill="#F5223B"/>
<path d="M23.4373 7C33.0004 7 36.764 15.1922 37.4095 19.451C35.9199 16.6118 32.9706 14.1282 29.0977 13.6248C25.2248 13.1213 22.1265 14.719 20.19 16.3752C19.5942 15.5964 18.0867 14.441 16.2278 13.9205C13.1592 13.0613 11.4313 13.743 10.5674 14.4528C10.5674 13.7135 13.5727 7 23.4373 7Z" fill="#17A3EB"/>
</svg>
