<svg width="24" height="24" viewBox="0 0 24 24" fill="none" xmlns="http://www.w3.org/2000/svg">
<path fill-rule="evenodd" clip-rule="evenodd" d="M5.20887 0.374724C9.68588 -0.124812 14.3141 -0.124812 18.7911 0.374724C21.2895 0.653492 23.3051 2.61864 23.5985 5.12273C24.1338 9.69205 24.1338 14.3081 23.5985 18.8774C23.3051 21.3815 21.2895 23.3467 18.7911 23.6254C14.3141 24.125 9.68588 24.125 5.20887 23.6254C2.71046 23.3467 0.694845 21.3815 0.40148 18.8774C-0.133838 14.3081 -0.133838 9.69205 0.40148 5.12273C0.694846 2.61864 2.71046 0.653492 5.20887 0.374724ZM4.54645 10.8734C4.97371 10.4468 5.66642 10.4468 6.09368 10.8734L9.69628 14.4699L17.3201 6.85885C17.7474 6.43231 18.4401 6.43231 18.8673 6.85886C19.2946 7.2854 19.2946 7.97695 18.8673 8.40349L15.2647 12.0001L14.8461 12.3786C14.8461 12.3786 14.544 12.6802 14.1167 13.1068C13.6895 13.5333 14.1167 13.1068 13.3874 13.8349L12.658 14.5631L12.2588 15.001L10.1149 17.1413C9.68765 17.5678 8.99494 17.5678 8.56769 17.1413C8.14043 16.7148 7.9074 16.3931 7.9074 16.3931L4.54646 12.418C4.11921 11.9915 4.1192 11.2999 4.54645 10.8734Z" fill="#051E26"/>
</svg>
