<svg width="22" height="19" viewBox="0 0 22 19" fill="none" xmlns="http://www.w3.org/2000/svg">
<path d="M20.9442 10.2607C20.9442 10.2607 20.2757 17.9999 11.4625 17.9999C2.64926 17.9999 3.01869 10.8468 1.9808 10.5763C0.942917 10.3058 0.872544 9.83993 1.9808 9.94512C3.08905 10.0503 17.7426 10.3208 19.836 9.94512C21.9293 9.56943 20.9442 10.2607 20.9442 10.2607Z" stroke="#DEE9EC"/>
<path d="M14.505 4.94734C18.5319 5.08083 20.322 8.07892 20.5909 9.50287C20.5909 9.50287 20.1875 9.8533 18.8195 9.8533C17.4515 9.8533 9.05042 10.137 8.26117 9.70312C7.47192 9.26926 10.4781 4.81384 14.505 4.94734Z" stroke="#DEE9EC"/>
<path d="M4.68088 5.35036C7.02558 4.26585 9.9477 5.98439 9.9477 6.65178C8.96783 7.10227 7.46302 9.30466 8.09294 9.88863C8.09294 9.88863 2.49365 9.90531 2.26619 9.67173C2.03872 9.43814 1.99989 6.59042 4.68088 5.35036Z" stroke="#DEE9EC"/>
<path d="M12.0217 1C17.647 1 19.861 5.64225 20.2406 8.05556C19.3644 6.44669 17.6295 5.03933 15.3513 4.75402C13.0732 4.46872 11.2506 5.37411 10.1115 6.31261C9.76106 5.87129 8.87433 5.21657 7.78081 4.92161C5.97579 4.43474 4.95938 4.82106 4.45117 5.22328C4.45117 4.8043 6.21899 1 12.0217 1Z" stroke="#DEE9EC"/>
</svg>
