<svg width="22" height="17" viewBox="0 0 22 17" fill="none" xmlns="http://www.w3.org/2000/svg">
<path d="M20.9442 9.2607C20.9442 9.2607 20.2757 16.9999 11.4625 16.9999C2.64926 16.9999 3.01869 9.84678 1.9808 9.57628C0.942917 9.30578 0.872544 8.83993 1.9808 8.94512C3.08905 9.05031 17.7426 9.32081 19.836 8.94512C21.9293 8.56943 20.9442 9.2607 20.9442 9.2607Z" fill="#051E26"/>
<path d="M14.505 3.94734C18.5319 4.08083 20.322 7.07892 20.5909 8.50287C20.5909 8.50287 20.1875 8.8533 18.8195 8.8533C17.4515 8.8533 9.05042 9.13698 8.26117 8.70312C7.47192 8.26926 10.4781 3.81384 14.505 3.94734Z" fill="#F5C322"/>
<path d="M4.68088 4.35036C7.02558 3.26585 9.9477 4.98439 9.9477 5.65178C8.96783 6.10227 7.46302 8.30466 8.09294 8.88863C8.09294 8.88863 2.49365 8.90531 2.26619 8.67173C2.03872 8.43814 1.99989 5.59042 4.68088 4.35036Z" fill="#F5223B"/>
<path d="M12.0217 0C17.647 0 19.861 4.64225 20.2406 7.05556C19.3644 5.44669 17.6295 4.03933 15.3513 3.75402C13.0732 3.46872 11.2506 4.37411 10.1115 5.31261C9.76106 4.87129 8.87433 4.21657 7.78081 3.92161C5.97579 3.43474 4.95938 3.82106 4.45117 4.22328C4.45117 3.8043 6.21899 0 12.0217 0Z" fill="#17A3EB"/>
</svg>
