<svg width="105" height="30" viewBox="0 0 105 30" fill="none" xmlns="http://www.w3.org/2000/svg">
<path d="M31.6295 16.3424C31.6295 16.3424 30.5599 29.9999 16.4588 29.9999C2.35757 29.9999 2.94865 17.3767 1.28803 16.8993C-0.372584 16.422 -0.48518 15.5999 1.28803 15.7855C3.06123 15.9711 26.5069 16.4485 29.8563 15.7855C33.2057 15.1225 31.6295 16.3424 31.6295 16.3424Z" fill="#051E26"/>
<path d="M21.327 6.96588C27.77 7.20146 30.6342 12.4922 31.0645 15.0051C31.0645 15.0051 30.419 15.6235 28.2302 15.6235C26.0414 15.6235 12.5997 16.1241 11.3369 15.3584C10.0741 14.5928 14.8839 6.7303 21.327 6.96588Z" fill="#F5C322"/>
<path d="M5.60806 7.67713C9.35958 5.76328 14.035 8.79599 14.035 9.97374C12.4672 10.7687 10.0595 14.6553 11.0674 15.6858C11.0674 15.6858 2.1085 15.7153 1.74456 15.3031C1.38061 14.8909 1.31848 9.86546 5.60806 7.67713Z" fill="#F5223B"/>
<path d="M17.3527 0C26.3533 0 29.8955 8.19221 30.503 12.451C29.1011 9.6118 26.3252 7.12823 22.6802 6.62475C19.0351 6.12127 16.119 7.71902 14.2965 9.3752C13.7357 8.5964 12.3169 7.44101 10.5673 6.9205C7.67928 6.06131 6.05302 6.74305 5.23989 7.45284C5.23989 6.71347 8.06839 0 17.3527 0Z" fill="#17A3EB"/>
<path d="M41.4347 22V7.45455H47.0028C48.054 7.45455 48.9276 7.62026 49.6236 7.9517C50.3243 8.27841 50.8475 8.72585 51.1932 9.29403C51.5436 9.86222 51.7188 10.5062 51.7188 11.2259C51.7188 11.8177 51.6051 12.3243 51.3778 12.7457C51.1506 13.1624 50.8452 13.5009 50.4616 13.7614C50.0781 14.0218 49.6496 14.2088 49.1761 14.3224V14.4645C49.6922 14.4929 50.187 14.6515 50.6605 14.9403C51.1387 15.2244 51.5294 15.6269 51.8324 16.1477C52.1354 16.6686 52.2869 17.2983 52.2869 18.0369C52.2869 18.7898 52.1046 19.4669 51.7401 20.0682C51.3755 20.6648 50.8262 21.1359 50.0923 21.4815C49.3584 21.8272 48.4351 22 47.3224 22H41.4347ZM44.0696 19.7983H46.9034C47.8598 19.7983 48.5488 19.616 48.9702 19.2514C49.3963 18.8821 49.6094 18.4086 49.6094 17.831C49.6094 17.4001 49.5028 17.0118 49.2898 16.6662C49.0767 16.3158 48.7737 16.0412 48.3807 15.8423C47.9877 15.6387 47.5189 15.5369 46.9744 15.5369H44.0696V19.7983ZM44.0696 13.6406H46.6761C47.1307 13.6406 47.5402 13.5578 47.9048 13.392C48.2694 13.2216 48.5559 12.9825 48.7642 12.6747C48.9773 12.3622 49.0838 11.9929 49.0838 11.5668C49.0838 11.0033 48.8849 10.5393 48.4872 10.1747C48.0942 9.81013 47.5095 9.62784 46.733 9.62784H44.0696V13.6406ZM54.1656 22V11.0909H56.7366V22H54.1656ZM55.4582 9.54261C55.051 9.54261 54.7006 9.40767 54.407 9.13778C54.1135 8.86316 53.9667 8.53409 53.9667 8.15057C53.9667 7.76231 54.1135 7.43324 54.407 7.16335C54.7006 6.88873 55.051 6.75142 55.4582 6.75142C55.8701 6.75142 56.2205 6.88873 56.5093 7.16335C56.8029 7.43324 56.9496 7.76231 56.9496 8.15057C56.9496 8.53409 56.8029 8.86316 56.5093 9.13778C56.2205 9.40767 55.8701 9.54261 55.4582 9.54261ZM61.6514 15.608V22H59.0804V11.0909H61.5378V12.9446H61.6656C61.9166 12.3338 62.3167 11.8485 62.8659 11.4886C63.4199 11.1288 64.1041 10.9489 64.9185 10.9489C65.6713 10.9489 66.3271 11.1098 66.8858 11.4318C67.4492 11.7538 67.8848 12.2202 68.1926 12.831C68.5051 13.4418 68.659 14.1828 68.6543 15.054V22H66.0832V15.4517C66.0832 14.7225 65.8938 14.152 65.5151 13.7401C65.141 13.3281 64.6225 13.1222 63.9597 13.1222C63.5098 13.1222 63.1098 13.2216 62.7594 13.4205C62.4137 13.6146 62.1415 13.8963 61.9426 14.2656C61.7485 14.6349 61.6514 15.0824 61.6514 15.608ZM75.7122 26.3182C74.7889 26.3182 73.9958 26.1927 73.333 25.9418C72.6701 25.6955 72.1374 25.3641 71.7349 24.9474C71.3325 24.5308 71.0531 24.0691 70.8969 23.5625L73.2122 23.0014C73.3164 23.2145 73.4679 23.4252 73.6668 23.6335C73.8656 23.8466 74.1331 24.0218 74.4693 24.1591C74.8102 24.3011 75.2387 24.3722 75.7548 24.3722C76.484 24.3722 77.0877 24.1946 77.5659 23.8395C78.0441 23.4891 78.2832 22.9115 78.2832 22.1065V20.0398H78.1554C78.0228 20.3049 77.8287 20.5772 77.573 20.8565C77.3221 21.1359 76.9883 21.3703 76.5716 21.5597C76.1597 21.7491 75.6412 21.8438 75.0162 21.8438C74.1781 21.8438 73.4182 21.6473 72.7364 21.2543C72.0593 20.8565 71.5195 20.2647 71.117 19.4787C70.7193 18.688 70.5205 17.6984 70.5205 16.5099C70.5205 15.312 70.7193 14.3011 71.117 13.4773C71.5195 12.6487 72.0616 12.0213 72.7435 11.5952C73.4253 11.1643 74.1852 10.9489 75.0233 10.9489C75.6625 10.9489 76.1881 11.0578 76.6 11.2756C77.0167 11.4886 77.3481 11.7467 77.5943 12.0497C77.8405 12.348 78.0276 12.6297 78.1554 12.8949H78.2974V11.0909H80.833V22.1776C80.833 23.1103 80.6104 23.8821 80.1653 24.4929C79.7203 25.1037 79.1118 25.5606 78.3401 25.8636C77.5683 26.1667 76.6923 26.3182 75.7122 26.3182ZM75.7335 19.8267C76.278 19.8267 76.742 19.6941 77.1256 19.429C77.5091 19.1638 77.8003 18.7827 77.9991 18.2855C78.198 17.7884 78.2974 17.1918 78.2974 16.4957C78.2974 15.8092 78.198 15.2079 77.9991 14.6918C77.805 14.1757 77.5162 13.7756 77.1327 13.4915C76.7539 13.2027 76.2875 13.0582 75.7335 13.0582C75.1606 13.0582 74.6824 13.2074 74.2989 13.5057C73.9153 13.804 73.6265 14.2135 73.4324 14.7344C73.2383 15.2505 73.1412 15.8376 73.1412 16.4957C73.1412 17.1634 73.2383 17.7481 73.4324 18.25C73.6313 18.7472 73.9224 19.1354 74.306 19.4148C74.6942 19.6894 75.1701 19.8267 75.7335 19.8267ZM91.7901 13.9744L89.4463 14.2301C89.38 13.9934 89.264 13.7708 89.0983 13.5625C88.9373 13.3542 88.7195 13.1861 88.4449 13.0582C88.1703 12.9304 87.8341 12.8665 87.4364 12.8665C86.9013 12.8665 86.4515 12.9825 86.0869 13.2145C85.7271 13.4465 85.5495 13.7472 85.5543 14.1165C85.5495 14.4337 85.6655 14.6918 85.9023 14.8906C86.1437 15.0895 86.5415 15.2528 87.0955 15.3807L88.9562 15.7784C89.9884 16.0009 90.7555 16.3537 91.2574 16.8366C91.764 17.3196 92.0197 17.9517 92.0244 18.733C92.0197 19.4195 91.8185 20.0256 91.4207 20.5511C91.0277 21.072 90.4809 21.4792 89.7801 21.7727C89.0794 22.0663 88.2744 22.2131 87.3653 22.2131C86.0301 22.2131 84.9553 21.9337 84.1409 21.375C83.3265 20.8116 82.8412 20.0279 82.6849 19.0241L85.192 18.7827C85.3057 19.2751 85.5472 19.6468 85.9165 19.8977C86.2858 20.1487 86.7664 20.2741 87.3582 20.2741C87.969 20.2741 88.4591 20.1487 88.8284 19.8977C89.2025 19.6468 89.3895 19.3366 89.3895 18.9673C89.3895 18.6548 89.2687 18.3968 89.0273 18.1932C88.7905 17.9896 88.4212 17.8333 87.9193 17.7244L86.0585 17.3338C85.0121 17.116 84.238 16.7491 83.7361 16.233C83.2342 15.7121 82.9856 15.054 82.9903 14.2585C82.9856 13.5862 83.1679 13.0038 83.5372 12.5114C83.9113 12.0142 84.4297 11.6307 85.0926 11.3608C85.7602 11.0862 86.5296 10.9489 87.4009 10.9489C88.6793 10.9489 89.6854 11.2211 90.4193 11.7656C91.158 12.3101 91.6149 13.0464 91.7901 13.9744ZM100.798 17.4119V11.0909H103.369V22H100.876V20.0611H100.762C100.516 20.6719 100.111 21.1714 99.5476 21.5597C98.9889 21.9479 98.3 22.142 97.4808 22.142C96.7659 22.142 96.1338 21.9834 95.5845 21.6662C95.04 21.3442 94.6139 20.8778 94.3061 20.267C93.9983 19.6515 93.8445 18.9081 93.8445 18.0369V11.0909H96.4155V17.6392C96.4155 18.3305 96.6049 18.8797 96.9837 19.2869C97.3625 19.6941 97.8596 19.8977 98.4751 19.8977C98.8539 19.8977 99.2209 19.8054 99.576 19.6207C99.9311 19.4361 100.222 19.1615 100.45 18.7969C100.682 18.4276 100.798 17.9659 100.798 17.4119Z" fill="black"/>
</svg>
