<svg width="33" height="33" viewBox="0 0 33 33" fill="none" xmlns="http://www.w3.org/2000/svg">
<path fill-rule="evenodd" clip-rule="evenodd" d="M16.875 2.75V10.375L16.875 10.4294V10.4294C16.8749 10.8535 16.8748 11.2656 16.9205 11.6055C16.972 11.9887 17.0976 12.426 17.4608 12.7892C17.824 13.1524 18.2613 13.278 18.6445 13.3295C18.9844 13.3752 19.3965 13.3751 19.8206 13.375H19.8206L19.875 13.375H27.5V22C27.5 25.8891 27.5 27.8336 26.2918 29.0418C25.0836 30.25 23.1391 30.25 19.25 30.25H13.75C9.86091 30.25 7.91637 30.25 6.70818 29.0418C5.5 27.8336 5.5 25.8891 5.5 22V11C5.5 7.11091 5.5 5.16637 6.70818 3.95818C7.91637 2.75 9.86091 2.75 13.75 2.75H16.875ZM18.875 2.75104V10.375C18.875 10.8747 18.8771 11.1488 18.9027 11.339L18.9037 11.3463L18.911 11.3473C19.1012 11.3729 19.3753 11.375 19.875 11.375H27.499C27.4939 10.5892 27.4643 10.131 27.2907 9.71171C27.0813 9.20634 26.6839 8.80893 25.8891 8.0141L25.8891 8.01409L22.2359 4.36091C21.4411 3.56608 21.0437 3.16866 20.5383 2.95933C20.119 2.78567 19.6608 2.75608 18.875 2.75104Z" fill="#B3C6CC"/>
</svg>
