<svg width="28" height="27" viewBox="0 0 28 27" fill="none" xmlns="http://www.w3.org/2000/svg">
<path d="M7.3596 1.17261C7.3596 0.524996 6.83494 0 6.18775 0C5.54056 0 5.01591 0.524996 5.01591 1.17261V4.01256C2.68304 4.34259 0.840044 6.18897 0.528058 8.54418L0.392825 9.56506C0.369897 9.73814 0.347974 9.91132 0.327054 10.0846C0.271561 10.5442 0.633435 10.9444 1.09609 10.9444H26.9039C27.3666 10.9444 27.7284 10.5442 27.6729 10.0846C27.652 9.91131 27.6301 9.73814 27.6072 9.56505L27.4719 8.54417C27.16 6.189 25.317 4.34264 22.9842 4.01258V1.17261C22.9842 0.524996 22.4595 0 21.8123 0C21.1651 0 20.6405 0.524996 20.6405 1.17261V3.77993C16.2223 3.3862 11.7778 3.38619 7.3596 3.77992V1.17261Z" fill="#051E26"/>
<path d="M27.9756 14.0331C27.9619 13.6166 27.6179 13.2896 27.2014 13.2896H0.798623C0.382116 13.2896 0.0381165 13.6166 0.0244377 14.0331C-0.0683701 16.8594 0.103191 19.6914 0.538701 22.492C0.868395 24.6122 2.58969 26.2406 4.72361 26.4512L6.58763 26.6352C11.5173 27.1216 16.4827 27.1216 21.4124 26.6352L23.2764 26.4512C25.4103 26.2406 27.1316 24.6122 27.4613 22.492C27.8968 19.6914 28.0684 16.8594 27.9756 14.0331Z" fill="#051E26"/>
</svg>
