<svg width="13" height="13" viewBox="0 0 13 13" fill="none" xmlns="http://www.w3.org/2000/svg">
<path d="M5.01009 1.625C5.01009 1.40063 5.19198 1.21875 5.41634 1.21875H7.58301C7.80737 1.21875 7.98926 1.40063 7.98926 1.625V2.03125H10.2913C10.5157 2.03125 10.6976 2.21313 10.6976 2.4375C10.6976 2.66187 10.5157 2.84375 10.2913 2.84375H2.70801C2.48364 2.84375 2.30176 2.66187 2.30176 2.4375C2.30176 2.21313 2.48364 2.03125 2.70801 2.03125H5.01009V1.625Z" fill="#051E26"/>
<path fill-rule="evenodd" clip-rule="evenodd" d="M3.37962 4.30342C3.39486 4.16627 3.51079 4.0625 3.64879 4.0625H9.35055C9.48855 4.0625 9.60449 4.16627 9.61973 4.30342L9.72814 5.27915C9.92356 7.03793 9.92356 8.81295 9.72814 10.5717L9.71747 10.6678C9.64629 11.3083 9.14984 11.8191 8.51156 11.9085C7.17681 12.0953 5.82253 12.0953 4.48778 11.9085C3.8495 11.8191 3.35305 11.3083 3.28188 10.6678L3.2712 10.5717C3.07578 8.81295 3.07578 7.03793 3.2712 5.27915L3.37962 4.30342ZM5.82259 6.175C5.82259 5.95063 5.64071 5.76875 5.41634 5.76875C5.19198 5.76875 5.01009 5.95063 5.01009 6.175L5.01009 9.96666C5.01009 10.191 5.19198 10.3729 5.41634 10.3729C5.64071 10.3729 5.82259 10.191 5.82259 9.96666L5.82259 6.175ZM7.98926 6.175C7.98926 5.95063 7.80737 5.76875 7.58301 5.76875C7.35864 5.76875 7.17676 5.95063 7.17676 6.175V9.96666C7.17676 10.191 7.35864 10.3729 7.58301 10.3729C7.80737 10.3729 7.98926 10.191 7.98926 9.96666V6.175Z" fill="#051E26"/>
</svg>
