<svg width="24" height="24" viewBox="0 0 24 24" fill="none" xmlns="http://www.w3.org/2000/svg">
<path fill-rule="evenodd" clip-rule="evenodd" d="M5.20888 0.374652C9.68589 -0.124884 14.3141 -0.124884 18.7911 0.374652C21.2895 0.65342 23.3051 2.61857 23.5985 5.12265C24.1338 9.69198 24.1338 14.308 23.5985 18.8773C23.3051 21.3814 21.2895 23.3466 18.7911 23.6253C14.3141 24.1249 9.68589 24.1249 5.20888 23.6253C2.71047 23.3466 0.694854 21.3814 0.401488 18.8773C-0.133829 14.308 -0.133829 9.69198 0.401488 5.12265C0.694854 2.61857 2.71047 0.65342 5.20888 0.374652ZM6.8502 6.85877C7.27746 6.43223 7.97017 6.43223 8.39743 6.85877L12 10.4554L15.6026 6.85878C16.0299 6.43224 16.7226 6.43224 17.1499 6.85878C17.5771 7.28532 17.5771 7.97688 17.1499 8.40342L13.5473 12L17.1498 15.5966C17.5771 16.0231 17.5771 16.7147 17.1498 17.1412C16.7226 17.5678 16.0299 17.5678 15.6026 17.1412L12 13.5446L8.39744 17.1412C7.97018 17.5678 7.27747 17.5678 6.85022 17.1412C6.42296 16.7147 6.42296 16.0231 6.85022 15.5966L10.4528 12L6.8502 8.40341C6.42295 7.97687 6.42295 7.28531 6.8502 6.85877Z" fill="#B3C6CC"/>
</svg>
