<svg width="14" height="14" viewBox="0 0 14 14" fill="none" xmlns="http://www.w3.org/2000/svg">
<path fill-rule="evenodd" clip-rule="evenodd" d="M10.3418 5.99122L11.0831 5.24993C11.7274 4.6056 11.7274 3.56093 11.0831 2.9166C10.4388 2.27227 9.3941 2.27227 8.74977 2.9166L7.99426 3.67211C8.53984 4.6474 9.35272 5.45382 10.3418 5.99122ZM6.53918 5.12719L3.18948 8.47689C2.76442 8.90195 2.55189 9.11448 2.41216 9.37557C2.27242 9.63667 2.21348 9.9314 2.09559 10.5208L1.89686 11.5145C1.83034 11.8471 1.79708 12.0134 1.89168 12.108C1.98629 12.2026 2.1526 12.1694 2.48521 12.1028L3.47885 11.9041C4.06831 11.7862 4.36303 11.7273 4.62413 11.5875C4.88523 11.4478 5.09776 11.2353 5.52282 10.8102L8.88292 7.45012C7.94549 6.84715 7.14749 6.05441 6.53918 5.12719Z" fill="#051E26"/>
</svg>
