<svg width="28" height="28" viewBox="0 0 28 28" fill="none" xmlns="http://www.w3.org/2000/svg">
<path d="M25.2 0H2.8C1.26 0 0 1.26 0 2.8V28L5.6 22.4H25.2C26.74 22.4 28 21.14 28 19.6V2.8C28 1.26 26.74 0 25.2 0ZM15.4 16.8H12.6V14H15.4V16.8ZM17.92 9.8C17.5 10.36 16.94 10.64 16.38 10.92C15.96 11.2 15.82 11.34 15.68 11.62C15.4 11.9 15.4 12.18 15.4 12.6H12.6C12.6 11.9 12.74 11.48 13.02 11.06C13.3 10.78 13.86 10.36 14.56 9.94C14.98 9.8 15.26 9.52 15.4 9.24C15.54 8.96 15.68 8.54 15.68 8.26C15.68 7.84 15.54 7.56 15.26 7.28C14.98 7 14.56 6.86 14.14 6.86C13.72 6.86 13.44 7 13.16 7.14C12.88 7.28 12.74 7.56 12.74 7.98H9.94C10.08 7 10.5 6.16 11.2 5.6C11.9 5.04 12.88 4.9 14.14 4.9C15.4 4.9 16.52 5.18 17.22 5.74C17.92 6.3 18.34 7.14 18.34 8.12C18.48 8.68 18.34 9.24 17.92 9.8Z" fill="#B3C6CC"/>
</svg>
