<svg width="25" height="25" viewBox="0 0 25 25" fill="none" xmlns="http://www.w3.org/2000/svg">
<path d="M21.7778 0H2.72222C1.225 0 0 1.225 0 2.72222V21.7778C0 23.275 1.225 24.5 2.72222 24.5H21.7778C23.275 24.5 24.5 23.275 24.5 21.7778V2.72222C24.5 1.225 23.275 0 21.7778 0ZM5.44444 5.44444H8.16667V8.16667H5.44444V5.44444ZM5.44444 10.8889H8.16667V13.6111H5.44444V10.8889ZM5.44444 16.3333H8.16667V19.0556H5.44444V16.3333ZM19.0556 19.0556H10.8889V16.3333H19.0556V19.0556ZM19.0556 13.6111H10.8889V10.8889H19.0556V13.6111ZM19.0556 8.16667H10.8889V5.44444H19.0556V8.16667Z" fill="#B3C6CC"/>
</svg>
