<svg width="25" height="25" viewBox="0 0 25 25" fill="none" xmlns="http://www.w3.org/2000/svg">
<path fill-rule="evenodd" clip-rule="evenodd" d="M5.46875 0C5.67601 0 5.87463 0.0823021 6.02112 0.228818C6.1676 0.375334 6.25 0.574048 6.25 0.78125V1.5625H18.75V0.78125C18.75 0.574048 18.8324 0.375334 18.9789 0.228818C19.1254 0.0823021 19.324 0 19.5312 0C19.7385 0 19.9371 0.0823021 20.0836 0.228818C20.2301 0.375334 20.3125 0.574048 20.3125 0.78125V1.5625H21.875C22.7038 1.5625 23.4985 1.89174 24.0847 2.4778C24.6707 3.06384 25 3.85869 25 4.6875V21.875C25 22.7037 24.6707 23.4986 24.0847 24.0847C23.4985 24.6707 22.7038 25 21.875 25H3.125C2.29619 25 1.50146 24.6707 0.915273 24.0847C0.329336 23.4986 0 22.7037 0 21.875V4.6875C0 3.85869 0.329336 3.06384 0.915273 2.4778C1.50146 1.89174 2.29619 1.5625 3.125 1.5625H4.6875V0.78125C4.6875 0.574048 4.7699 0.375334 4.91638 0.228818C5.06287 0.0823021 5.26148 0 5.46875 0ZM7.81217 7.29167C7.81217 6.71637 8.27854 6.25 8.85384 6.25H10.9372C11.5125 6.25 11.9788 6.71637 11.9788 7.29167V8.33333C11.9788 9.48393 11.0461 10.4167 9.89551 10.4167H8.85384C8.27854 10.4167 7.81217 9.9503 7.81217 9.375V7.29167ZM13.0205 7.29167C13.0205 6.71637 13.4869 6.25 14.0622 6.25H16.1455C16.7208 6.25 17.1872 6.71637 17.1872 7.29167V8.33333C17.1872 9.48393 16.2544 10.4167 15.1038 10.4167H14.0622C13.4869 10.4167 13.0205 9.9503 13.0205 9.375V7.29167ZM8.85384 11.4583C8.27854 11.4583 7.81217 11.9247 7.81217 12.5V14.5833C7.81217 15.1586 8.27854 15.625 8.85384 15.625H9.89551C11.0461 15.625 11.9788 14.6923 11.9788 13.5417V12.5C11.9788 11.9247 11.5125 11.4583 10.9372 11.4583H8.85384ZM13.0205 12.5C13.0205 11.9247 13.4869 11.4583 14.0622 11.4583H21.3538C21.9291 11.4583 22.3955 11.9247 22.3955 12.5V18.75C22.3955 19.9006 21.4628 20.8333 20.3122 20.8333H14.0622C13.4869 20.8333 13.0205 20.367 13.0205 19.7917V12.5ZM8.85384 16.6667C8.27854 16.6667 7.81217 17.133 7.81217 17.7083V19.7917C7.81217 20.367 8.27854 20.8333 8.85384 20.8333H9.89551C11.0461 20.8333 11.9788 19.9006 11.9788 18.75V17.7083C11.9788 17.133 11.5125 16.6667 10.9372 16.6667H8.85384ZM2.60384 12.5C2.60384 11.9247 3.07021 11.4583 3.64551 11.4583H5.72884C6.30414 11.4583 6.77051 11.9247 6.77051 12.5V13.5417C6.77051 14.6923 5.83777 15.625 4.68717 15.625H3.64551C3.07021 15.625 2.60384 15.1586 2.60384 14.5833V12.5ZM3.64551 16.6667C3.07021 16.6667 2.60384 17.133 2.60384 17.7083V19.7917C2.60384 20.367 3.07021 20.8333 3.64551 20.8333H4.68717C5.83777 20.8333 6.77051 19.9006 6.77051 18.75V17.7083C6.77051 17.133 6.30414 16.6667 5.72884 16.6667H3.64551ZM18.2288 7.29167C18.2288 6.71637 18.6952 6.25 19.2705 6.25H21.3538C21.9291 6.25 22.3955 6.71637 22.3955 7.29167V8.33333C22.3955 9.48393 21.4628 10.4167 20.3122 10.4167H19.2705C18.6952 10.4167 18.2288 9.9503 18.2288 9.375V7.29167ZM16.1455 15.0243C16.1455 15.7159 16.5893 16.1081 17.2705 16.3521V17.8521C17.0326 17.7696 16.8922 17.6141 16.8236 17.4201C16.7768 17.2847 16.6705 17.1875 16.5424 17.1875H16.4549C16.2455 17.1875 16.0986 17.4236 16.1768 17.6389C16.3549 18.1215 16.7705 18.4062 17.2393 18.5174V18.75C17.2393 19.0382 17.4486 19.2708 17.708 19.2708C17.9674 19.2708 18.1768 19.0382 18.1768 18.75V18.5243C18.7861 18.3958 19.2705 18.0035 19.2705 17.2917C19.2705 16.4646 18.7364 16.0943 18.1455 15.8755V14.4633C18.3093 14.5463 18.4067 14.6842 18.4549 14.8611C18.4924 15 18.5955 15.1042 18.7268 15.1042H18.8205C19.0268 15.1042 19.1736 14.8785 19.1018 14.6632C18.9705 14.2535 18.6643 13.9132 18.1768 13.7812V13.5417C18.1768 13.2535 17.9674 13.0208 17.708 13.0208C17.4486 13.0208 17.2393 13.2535 17.2393 13.5417V13.7708C16.633 13.9167 16.1455 14.3542 16.1455 15.0243ZM17.2705 14.4508V15.5667C16.9722 15.4153 16.8643 15.2443 16.8643 15.0174C16.8643 14.7597 17.0105 14.5552 17.2705 14.4508ZM18.1455 16.661V17.848C18.4681 17.7271 18.5518 17.4722 18.5518 17.2951C18.5518 17.0654 18.4726 16.8444 18.1455 16.661Z" fill="#B3C6CC"/>
</svg>
