<svg width="108" height="108" viewBox="0 0 108 108" fill="none" xmlns="http://www.w3.org/2000/svg">
<path d="M88.6154 4H19.3846C10.8879 4 4 10.8879 4 19.3846V88.6154C4 97.1121 10.8879 104 19.3846 104H88.6154C97.1121 104 104 97.1121 104 88.6154V19.3846C104 10.8879 97.1121 4 88.6154 4Z" stroke="#F5C322" stroke-width="7" stroke-linecap="round" stroke-linejoin="round"/>
<path d="M61.6914 27.0769C61.7967 30.1036 63.0461 32.9777 65.1876 35.1191C67.3291 37.2606 70.2032 38.5101 73.2299 38.6154C76.2901 38.6154 79.2249 37.3997 81.3888 35.2358C83.5527 33.0719 84.7683 30.1371 84.7683 27.0769" stroke="#F5C322" stroke-width="7" stroke-linecap="round" stroke-linejoin="round"/>
<path d="M23.2305 27.0769C23.3358 30.1036 24.5852 32.9777 26.7267 35.1191C28.8682 37.2606 31.7422 38.5101 34.7689 38.6154C37.8291 38.6154 40.764 37.3997 42.9279 35.2358C45.0917 33.0719 46.3074 30.1371 46.3074 27.0769" stroke="#F5C322" stroke-width="7" stroke-linecap="round" stroke-linejoin="round"/>
<path d="M27.0781 88.6155C27.0781 75.8847 39.1166 65.5386 54.0012 65.5386C70.1166 65.5386 80.5781 77.9617 80.9243 88.6155" stroke="#F5C322" stroke-width="7" stroke-linecap="round" stroke-linejoin="round"/>
</svg>
