<svg width="27" height="35" viewBox="0 0 27 35" fill="none" xmlns="http://www.w3.org/2000/svg">
<path fill-rule="evenodd" clip-rule="evenodd" d="M6.75 4.81953C6.75 2.15778 8.96619 0 11.7 0H15.3C18.0338 0 20.25 2.15778 20.25 4.81953V8.32465C20.25 9.05058 19.6456 9.63906 18.9 9.63906H8.1C7.35442 9.63906 6.75 9.05058 6.75 8.32465V4.81953ZM11.7 2.62884C10.4574 2.62884 9.45 3.60964 9.45 4.81953V7.01023H17.55V4.81953C17.55 3.60964 16.5426 2.62884 15.3 2.62884H11.7Z" fill="#051E26"/>
<path fill-rule="evenodd" clip-rule="evenodd" d="M3.57647 4.69469C3.80403 4.58848 4.05669 4.75754 4.05623 5.00324L4.05 8.32466C4.05 10.5025 5.86325 12.2679 8.1 12.2679H18.9C21.1368 12.2679 22.95 10.5025 22.95 8.32466V5.00225C22.95 4.75682 23.2025 4.5882 23.4298 4.6943C25.563 5.69002 27 7.81077 27 10.227V28.6103C27 31.6085 24.7062 34.1372 21.6505 34.5077C16.2377 35.1641 10.7623 35.1641 5.34955 34.5077C2.29376 34.1372 0 31.6085 0 28.6103V10.227C0 7.81109 1.4429 5.69057 3.57647 4.69469ZM18.9 17.0874C19.6456 17.0874 20.25 17.6759 20.25 18.4018C20.25 19.1278 19.6456 19.7163 18.9 19.7163H8.1C7.35442 19.7163 6.75 19.1278 6.75 18.4018C6.75 17.6759 7.35442 17.0874 8.1 17.0874H18.9ZM17.1 22.3451C17.8456 22.3451 18.45 22.9336 18.45 23.6595C18.45 24.3854 17.8456 24.9739 17.1 24.9739H8.1C7.35442 24.9739 6.75 24.3854 6.75 23.6595C6.75 22.9336 7.35442 22.3451 8.1 22.3451H17.1Z" fill="#051E26"/>
</svg>
