<svg width="24" height="24" viewBox="0 0 24 24" fill="none" xmlns="http://www.w3.org/2000/svg">
<path fill-rule="evenodd" clip-rule="evenodd" d="M1.21218 1.21205C0.333496 2.09073 0.333496 3.50495 0.333496 6.33338V17.6667C0.333496 20.4951 0.333496 21.9094 1.21218 22.788C2.09086 23.6667 3.50507 23.6667 6.3335 23.6667H17.6668C20.4953 23.6667 21.9095 23.6667 22.7882 22.788C23.6668 21.9094 23.6668 20.4951 23.6668 17.6667V6.33337C23.6668 3.50495 23.6668 2.09073 22.7882 1.21205C21.9095 0.333374 20.4953 0.333374 17.6668 0.333374H6.3335C3.50507 0.333374 2.09086 0.333374 1.21218 1.21205ZM18.6655 9.05474C18.9719 8.59521 18.8477 7.97434 18.3882 7.66799C17.9287 7.36164 17.3078 7.48581 17.0014 7.94534L13.2906 13.5116L12.4986 11.9274C11.8118 10.5539 9.89742 10.4347 9.0456 11.7124L5.33478 17.2787C5.02843 17.7382 5.1526 18.3591 5.61213 18.6654C6.07166 18.9718 6.69253 18.8476 6.99888 18.3881L10.7097 12.8218L11.5018 14.406C12.1885 15.7795 14.1029 15.8987 14.9547 14.621L18.6655 9.05474Z" fill="#B3C6CC"/>
</svg>
