<svg width="27" height="29" viewBox="0 0 27 29" fill="none" xmlns="http://www.w3.org/2000/svg">
<path d="M14.5659 1.06098C14.5659 0.475015 14.0887 0 13.5 0C12.9113 0 12.4341 0.475015 12.4341 1.06098V2.51688C5.54594 3.05234 0.109336 8.73298 0.00011717 15.701C-0.00725227 16.1711 0.333821 16.5695 0.792218 16.6455C4.64745 17.2851 8.53924 17.6316 12.4341 17.685V25.8171C12.4341 26.403 11.9569 26.878 11.3682 26.878C10.7795 26.878 10.3023 26.403 10.3023 25.8171V25.1098C10.3023 24.5238 9.82503 24.0488 9.23635 24.0488C8.64766 24.0488 8.17043 24.5238 8.17043 25.1098V25.8171C8.17043 27.575 9.60211 29 11.3682 29C13.1342 29 14.5659 27.575 14.5659 25.8171V17.685C18.4608 17.6316 22.3525 17.2851 26.2078 16.6455C26.6662 16.5695 27.0072 16.1711 26.9999 15.701C26.8907 8.73298 21.4541 3.05233 14.5659 2.51687V1.06098Z" fill="#051E26"/>
</svg>
