<svg width="25" height="25" viewBox="0 0 25 25" fill="none" xmlns="http://www.w3.org/2000/svg">
<path fill-rule="evenodd" clip-rule="evenodd" d="M2 0C0.895508 0 0 0.895432 0 2V23C0 24.1046 0.895508 25 2 25H23C24.1045 25 25 24.1046 25 23V2C25 0.895432 24.1045 0 23 0H2ZM15.6682 17.0574V18.7154H4.58496V17.0574C4.58496 17.0574 4.58496 13.7414 10.1267 13.7414C15.6682 13.7414 15.6682 17.0574 15.6682 17.0574ZM12.8975 9.18183C12.8975 8.60796 12.7349 8.04699 12.4304 7.56984C12.126 7.09268 11.6934 6.72079 11.187 6.50118C10.6807 6.28157 10.1235 6.22411 9.58618 6.33607C9.04858 6.44802 8.55493 6.72437 8.16724 7.13015C7.77979 7.53593 7.51587 8.05293 7.40894 8.61578C7.302 9.17861 7.35693 9.76201 7.56665 10.2922C7.77637 10.8224 8.13159 11.2755 8.58716 11.5944C9.04297 11.9132 9.57861 12.0833 10.1267 12.0833C10.8616 12.0833 11.5662 11.7776 12.0859 11.2335C12.6055 10.6894 12.8975 9.95136 12.8975 9.18183ZM15.6208 13.7414C16.1074 14.1357 16.5056 14.637 16.7874 15.2099C17.0691 15.7828 17.2275 16.4134 17.2517 17.0574V18.7154H20.4182V17.0574C20.4182 17.0574 20.4182 14.0481 15.6208 13.7414ZM14.8767 6.28032C14.3318 6.27714 13.7988 6.44774 13.3486 6.76943C13.8296 7.47304 14.0881 8.31659 14.0881 9.18183C14.0881 10.0471 13.8296 10.8906 13.3486 11.5942C13.7988 11.9159 14.3318 12.0865 14.8767 12.0833C15.6116 12.0833 16.3162 11.7776 16.8359 11.2335C17.3555 10.6894 17.6475 9.95136 17.6475 9.18183C17.6475 8.4123 17.3555 7.67429 16.8359 7.13015C16.3162 6.58601 15.6116 6.28032 14.8767 6.28032Z" fill="#B3C6CC"/>
</svg>
